# xmcd
#
# Track frame offsets:
#	150
#	15315
#	28255
#	39830
#	54090
#	69640
#	83380
#	96540
#	115820
#	129270
#	140790
#	154310
#
# Disc length: 2250 seconds
#
# Revision: 0
# Processed by: cddbd v1.5.2PL0 Copyright (c) Steve Scherf et al.
# Submitted via: dBpowerAMP V4.0
#
DISCID=9408c80c
DTITLE=Various Artist - та вяуса  йкасийа каийа  1
DYEAR=1900
DGENRE=
TTITLE0=басикгс тситсамгс - дгкгтгяио стг жкеба
TTITLE1=лаяийа мимоу - апоье йамеис лпал
TTITLE2=ламыкгс виытгс - жеяе ста паидиа ма пиоуме
TTITLE3=памос цабакас - лоу спасаме том лпацкала
TTITLE4=баццекгс пеяпимиадгс   - евеис йояли аяапийо
TTITLE5=ламыкгс аццекопоукос - думалитг ле жутгки
TTITLE6=амма вяусажг -ламтоулпака
TTITLE7=лаияг кимта - намхиа тсиццама
TTITLE8=памос лаяимос - апаккавтгйа апо сема
TTITLE9=спуяос фацояаиос - емас лацйас сто ботамийо
TTITLE10=яема мтакиа - ацапг епийимдумг
TTITLE11=тайгс лпимгс - дем паы спити лоу апоье
EXTD=
EXTT0=
EXTT1=
EXTT2=
EXTT3=
EXTT4=
EXTT5=
EXTT6=
EXTT7=
EXTT8=
EXTT9=
EXTT10=
EXTT11=
PLAYORDER=
